<?xml version="1.0" encoding="utf-8"?>
<!-- Generator: Adobe Illustrator 25.4.1, SVG Export Plug-In . SVG Version: 6.00 Build 0)  -->
<svg version="1.1" id="Camada_1" xmlns="http://www.w3.org/2000/svg" xmlns:xlink="http://www.w3.org/1999/xlink" x="0px" y="0px"
	 viewBox="0 0 800 200" style="enable-background:new 0 0 800 200;" xml:space="preserve">
<style type="text/css">
	.st0{fill:#12324D;}
	.st1{font-family:'GothamBlack';}
	.st2{font-size:119.095px;}
	.st3{font-family:'Gotham-Medium';}
	.st4{font-size:21.9402px;}
	
		.st5{clip-path:url(#SVGID_00000011713911104398059410000012352459434919207835_);fill-rule:evenodd;clip-rule:evenodd;fill:#DFF018;}
	
		.st6{clip-path:url(#SVGID_00000011713911104398059410000012352459434919207835_);fill-rule:evenodd;clip-rule:evenodd;fill:#1E639F;}
</style>
<text transform="matrix(1 0 0 1 212.5857 133.8093)" class="st0 st1 st2">Contatto</text>
<text transform="matrix(1 0 0 1 283.2771 164.4108)" class="st0 st3 st4">Assessoria de Imprensa e Conteúdo </text>
<g>
	<defs>
		<rect id="SVGID_1_" x="-20.7" y="-197.3" width="841.9" height="595.3"/>
	</defs>
	<clipPath id="SVGID_00000180349480152773932070000007247856123396257152_">
		<use xlink:href="#SVGID_1_"  style="overflow:visible;"/>
	</clipPath>
	
		<path style="clip-path:url(#SVGID_00000180349480152773932070000007247856123396257152_);fill-rule:evenodd;clip-rule:evenodd;fill:#DFF018;" d="
		M129.3,143.3c-6.9,3.8-14.8,5.9-23.2,5.9c-13.4,0-25.6-5.5-34.4-14.3c-8.8-8.8-14.3-21.1-14.3-34.6c0-13.5,5.4-25.7,14.3-34.6
		c8.8-8.9,21-14.3,34.4-14.3c8.4,0,16.3,2.1,23.2,5.9c5.4,3,10.3,6.9,14.2,11.7c3.6,4.4-3.1,9.9-7.3,5c-3.5-4.1-7.9-7.4-12.8-9.8
		c-5.2-2.5-11.1-3.9-17.3-3.9c-11,0-21,4.5-28.2,11.7c-7.2,7.2-11.7,17.3-11.7,28.3c0,11.1,4.5,21.1,11.7,28.3
		c7.2,7.2,17.2,11.7,28.2,11.7c6.2,0,12-1.4,17.3-3.9c4.9-2.4,9.3-5.7,12.8-9.8c4.2-4.8,11,0.7,7.3,5
		C139.6,136.4,134.7,140.3,129.3,143.3"/>
	
		<path style="clip-path:url(#SVGID_00000180349480152773932070000007247856123396257152_);fill-rule:evenodd;clip-rule:evenodd;fill:#1E639F;" d="
		M183.1,100.3c0-8.7-1.4-17.1-4.1-24.9c-0.6-1.8-2.4-2.8-4.2-2.5c-1.9,0.3-3.2,1.9-3.2,3.7c0,0.5,0.1,0.9,0.2,1.4
		c2.4,7,3.6,14.5,3.6,22.3c0,7.8-1.3,15.3-3.6,22.3c-0.2,0.5-0.2,0.9-0.2,1.4c0,1.9,1.3,3.4,3.2,3.7c1.9,0.3,3.6-0.8,4.2-2.5
		C181.7,117.4,183.1,109.1,183.1,100.3"/>
	
		<path style="clip-path:url(#SVGID_00000180349480152773932070000007247856123396257152_);fill-rule:evenodd;clip-rule:evenodd;fill:#1E639F;" d="
		M197.8,100.3c0-11.6-2.6-22.7-7.2-32.6c-0.8-1.7-2.6-2.6-4.4-2.1c-1.8,0.5-3,2.1-2.8,4c0,0.5,0.2,1,0.4,1.5
		c4.1,8.9,6.4,18.8,6.4,29.2c0,10.4-2.3,20.3-6.4,29.2c-0.2,0.5-0.3,1-0.4,1.5c-0.1,1.9,1,3.5,2.8,4c1.8,0.5,3.6-0.4,4.4-2.1
		C195.2,123,197.8,112,197.8,100.3"/>
	
		<path style="clip-path:url(#SVGID_00000180349480152773932070000007247856123396257152_);fill-rule:evenodd;clip-rule:evenodd;fill:#1E639F;" d="
		M106.1,162.8c23.3,0,43.7-12.9,54.3-32c0.9-1.6,0.5-3.6-0.9-4.8c-1.4-1.2-3.5-1.1-4.9,0.1c-0.5,0.4-0.9,0.9-1.2,1.5
		C144,144,126.3,155,106.1,155c-9.3,0-18-2.3-25.7-6.4c-5.8,6.2-14.9,6.3-22.6,4.1c5.3-3.2,8.8-6.6,10.9-12.6
		c-10.6-10-17.1-24.1-17.1-39.8c0-56.4,74.2-75.3,101.9-27.2c0.3,0.6,0.8,1.1,1.2,1.5c1.4,1.2,3.4,1.2,4.9,0.1
		c1.4-1.2,1.8-3.2,0.9-4.8C129.4,14.1,43.8,35.7,43.8,100.3c0,15.5,5.6,29.6,14.9,40.6c-3,3.5-6.7,6.3-10.8,8.3
		c-1,0.2-1.9,0.9-2.5,1.9c-1.3,2.1-0.5,4.5,1.3,5.5c6.1,3.4,12.9,5.2,19.7,5.2c5.7,0,11.3-1.1,16.4-3.5
		C90,161.2,97.9,162.8,106.1,162.8"/>
	
		<path style="clip-path:url(#SVGID_00000180349480152773932070000007247856123396257152_);fill-rule:evenodd;clip-rule:evenodd;fill:#1E639F;" d="
		M166.4,84.9c1.3,4.9,1.9,10.1,1.9,15.5c0,5.3-0.7,10.5-1.9,15.5c-0.4,1.5-1.5,2.5-3,2.8c-1.5,0.3-2.9-0.3-3.8-1.5
		c-0.7-1-1-2.2-0.7-3.5c1.1-4.3,1.6-8.7,1.6-13.3c0-4.6-0.6-9-1.6-13.3c-0.3-1.2-0.1-2.4,0.7-3.5c0.9-1.2,2.3-1.8,3.8-1.5
		C164.9,82.4,166,83.4,166.4,84.9"/>
</g>
</svg>
